<svg width="23.999999999999996" height="23.999999999999996" xmlns="http://www.w3.org/2000/svg">

 <g>
  <title>background</title>
  <rect fill="none" id="canvas_background" height="602" width="802" y="-1" x="-1"/>
 </g>
 <g>
  <title>Layer 1</title>
  <path id="svg_1" fill="#cfd8dc" d="m19,24l-14,0c-1.103,0 -2,-0.897 -2,-2l0,-9l-2,0c-0.561,0 -1,-0.439 -1,-1c0,-0.265 0.108,-0.525 0.296,-0.713l11.354,-11.144c0.194,-0.19 0.505,-0.19 0.701,0l3.649,3.585l0,-2.228c0,-0.276 0.224,-0.5 0.5,-0.5l4,0c0.276,0 0.5,0.224 0.5,0.5l0,7.13l2.701,2.653c0.191,0.192 0.299,0.452 0.299,0.717c0,0.561 -0.439,1 -1,1l-2,0l0,9c0,1.103 -0.897,2 -2,2z"/>
  <path id="svg_3" fill="#b4bcc0" d="m12,0c-0.126,0 -0.253,0.048 -0.35,0.143l-11.354,11.144c-0.188,0.188 -0.296,0.448 -0.296,0.713c0,0.561 0.439,1 1,1l2,0l0,9c0,1.103 0.897,2 2,2l7,0l0,-10c0,1.521 -0.5,2.792 -1.281,3.773c-0.77,0.911 -1.719,1.64 -2.604,2.132c-0.116,0.065 -0.241,0.095 -0.364,0.095c-0.262,0 -0.518,-0.138 -0.656,-0.386c-0.201,-0.362 -0.071,-0.819 0.292,-1.02c0.656,-0.364 1.384,-0.914 2.001,-1.587c-0.844,-0.734 -1.388,-1.802 -1.388,-3.007c0,-1.602 1.088,-2.278 2.048,-2.875c0.933,-0.581 1.765,-1.098 1.952,-2.377l0,-1.238c0,-0.007 0,-0.013 0,-0.02l0,-7.49z"/>
  <rect id="svg_5" height="11.17137" width="6.45336" y="8.84344" x="5.55853" stroke-width="null" fill="#b4bcc0"/>
 </g>
</svg>