<svg width="460.8" height="460.8" xmlns="http://www.w3.org/2000/svg">

 <g>
  <title>background</title>
  <rect fill="none" id="canvas_background" height="602" width="802" y="-1" x="-1"/>
 </g>
 <g>
  <title>Layer 1</title>
  <g id="svg_1">
   <g id="svg_2">
    <path fill="#cccccc" id="svg_3" d="m231.432,-1c-65.829,0 -119.641,53.812 -119.641,119.641s53.812,119.641 119.641,119.641s119.641,-53.812 119.641,-119.641s-53.812,-119.641 -119.641,-119.641z"/>
   </g>
  </g>
  <g id="svg_4">
   <g id="svg_5">
    <path fill="#cccccc" id="svg_6" d="m435.755,334.89c-3.135,-7.837 -7.314,-15.151 -12.016,-21.943c-24.033,-35.527 -61.126,-59.037 -102.922,-64.784c-5.224,-0.522 -10.971,0.522 -15.151,3.657c-21.943,16.196 -48.065,24.555 -75.233,24.555s-53.29,-8.359 -75.233,-24.555c-4.18,-3.135 -9.927,-4.702 -15.151,-3.657c-41.796,5.747 -79.412,29.257 -102.922,64.784c-4.702,6.792 -8.882,14.629 -12.016,21.943c-1.567,3.135 -1.045,6.792 0.522,9.927c4.18,7.314 9.404,14.629 14.106,20.898c7.314,9.927 15.151,18.808 24.033,27.167c7.314,7.314 15.673,14.106 24.033,20.898c41.273,30.825 90.906,47.02 142.106,47.02s100.833,-16.196 142.106,-47.02c8.359,-6.269 16.718,-13.584 24.033,-20.898c8.359,-8.359 16.718,-17.241 24.033,-27.167c5.224,-6.792 9.927,-13.584 14.106,-20.898c2.611,-3.135 3.133,-6.793 1.566,-9.927z"/>
   </g>
  </g>
  <g id="svg_7"/>
  <g id="svg_8"/>
  <g id="svg_9"/>
  <g id="svg_10"/>
  <g id="svg_11"/>
  <g id="svg_12"/>
  <g id="svg_13"/>
  <g id="svg_14"/>
  <g id="svg_15"/>
  <g id="svg_16"/>
  <g id="svg_17"/>
  <g id="svg_18"/>
  <g id="svg_19"/>
  <g id="svg_20"/>
  <g id="svg_21"/>
 </g>
</svg>