<svg id="Layer_1" enable-background="new 0 0 512 512" height="512" viewBox="0 0 512 512" width="512" xmlns="http://www.w3.org/2000/svg"><g><g id="XMLID_29_"><g><g id="XMLID_567_"><g id="XMLID_568_"><g id="XMLID_569_"><g id="XMLID_603_"><g id="XMLID_604_"><g id="XMLID_605_"><g id="XMLID_606_"><g id="XMLID_607_"><g id="XMLID_608_"><g id="XMLID_609_"><g id="XMLID_610_"><g id="XMLID_611_"><g id="XMLID_612_"><g id="XMLID_613_"><circle cx="256" cy="256" fill="#fedd55" r="256"/></g></g></g></g></g></g></g></g></g></g></g></g></g></g></g></g><path d="m512 256c0-27.842-4.462-54.639-12.681-79.734l-98.842-98.842-328.701 336.076 73.272 73.272c33.567 16.168 71.201 25.228 110.952 25.228 141.385 0 256-114.615 256-256z" fill="#ffc627"/><g><path d="m375.619 65.337h-239.238c-17.467 0-31.626 14.159-31.626 31.626v123.567h302.491v-123.567c-.001-17.467-14.16-31.626-31.627-31.626z" fill="#9e653e"/><path d="m407.25 96.96v123.57h-151.25v-155.19h119.62c17.47 0 31.63 14.16 31.63 31.62z" fill="#835637"/><g><path d="m354.205 122.879c-8.082-5.882-20.693-2.38-28.111 7.81-.248.34-.487.684-.718 1.031-3.085 4.643-8.209 7.502-13.783 7.397-.249-.005-.497-.007-.747-.007l-4.752-1.059c-32.871-7.324-66.952-7.324-99.824 0l-4.752 1.059c-.25 0-.499.002-.747.007-5.573.105-10.698-2.754-13.783-7.397-.231-.347-.47-.691-.718-1.031-7.421-10.19-20.031-13.695-28.111-7.81-8.081 5.884-8.62 18.961-1.202 29.151 1.228 1.686 2.61 3.207 4.109 4.538 2.673 2.374 3.69 6.168 2.509 9.543-1.446 4.132-2.232 8.566-2.232 13.175v38.707c0 6.238 5.104 11.341 11.341 11.341h166.994c6.238 0 11.341-5.104 11.341-11.341v-38.707c0-4.609-.787-9.043-2.233-13.175-1.181-3.375-.164-7.169 2.509-9.543 1.499-1.331 2.882-2.851 4.109-4.537 7.421-10.191 6.882-23.268-1.199-29.152z" fill="#fff"/><path d="m355.41 152.03c-1.23 1.69-2.61 3.21-4.11 4.54-2.68 2.37-3.69 6.17-2.51 9.54 1.44 4.13 2.23 8.57 2.23 13.18v38.7c0 .87-.1 1.72-.29 2.54-1.16 5.03-5.68 8.8-11.05 8.8h-83.68v-96.77c16.8-.01 33.6 1.82 50.09 5.49l4.76 1.06c.25 0 .49 0 .74.01 5.58.1 10.7-2.76 13.79-7.4.23-.35.47-.69.71-1.03 7.42-10.19 20.03-13.69 28.11-7.81 8.09 5.88 8.63 18.96 1.21 29.15z" fill="#e9edf5"/><g><path d="m440.224 285.102h-368.083v-38.794c0-19.246 15.602-34.849 34.849-34.849h298.385c19.246 0 34.849 15.602 34.849 34.849z" fill="#005fd2"/><path d="m440.22 246.31v38.79h-184.22v-73.64h149.38c.63 0 1.25.02 1.87.05 18.37.97 32.97 16.18 32.97 34.8z" fill="#00459f"/><g><path d="m71.776 355.78h45.862v57.72h-45.862z" fill="#9e653e"/><path d="m394.362 355.78h45.862v57.72h-45.862z" fill="#835637"/></g><path d="m72.141 284.335h367.717v74.214h-367.717z" fill="#c68254"/><path d="m256 284.33h183.86v74.22h-183.86z" fill="#9e653e"/></g></g></g></g></svg>