<svg width="24.000000000000004" height="24.000000000000004" xmlns="http://www.w3.org/2000/svg">

 <g>
  <title>background</title>
  <rect fill="none" id="canvas_background" height="602" width="802" y="-1" x="-1"/>
 </g>
 <g>
  <title>Layer 1</title>
  <path id="svg_1" fill="#cfd8dc" d="m17.21083,22.11982l-10.5,0c-1.241,0 -2.25,-1.01 -2.25,-2.25l0,-6.25l-1.75,0c-0.689,0 -1.25,-0.561 -1.25,-1.25c0,-0.348 0.148,-0.682 0.406,-0.916l9.576,-9.127c0.29,-0.275 0.746,-0.275 1.035,0l2.483,2.363l0,-0.82c0,-0.414 0.336,-0.75 0.75,-0.75l3,0c0.414,0 0.75,0.336 0.75,0.75l0,5.108l2.607,2.488c0.245,0.222 0.393,0.556 0.393,0.904c0,0.689 -0.561,1.25 -1.25,1.25l-1.75,0l0,6.25c0,1.24 -1.009,2.25 -2.25,2.25z"/>
  <path id="svg_2" fill="#b4bcc0" d="m11.96083,2.11982c-0.186,0 -0.373,0.069 -0.518,0.207l-9.576,9.127c-0.258,0.234 -0.406,0.568 -0.406,0.916c0,0.689 0.561,1.25 1.25,1.25l1.75,0l0,6.25c0,1.24 1.009,2.25 2.25,2.25l5.25,0l0,-20z"/>
 </g>
</svg>